<svg width="24" height="25" viewBox="0 0 24 25" fill="none" xmlns="http://www.w3.org/2000/svg">
<path d="M12 12.5C12.55 12.5 13.021 12.304 13.413 11.912C13.8043 11.5207 14 11.05 14 10.5C14 9.95 13.8043 9.479 13.413 9.087C13.021 8.69567 12.55 8.5 12 8.5C11.45 8.5 10.9793 8.69567 10.588 9.087C10.196 9.479 10 9.95 10 10.5C10 11.05 10.196 11.5207 10.588 11.912C10.9793 12.304 11.45 12.5 12 12.5ZM12 19.85C14.0333 17.9833 15.5417 16.2873 16.525 14.762C17.5083 13.2373 18 11.8833 18 10.7C18 8.88333 17.4207 7.39567 16.262 6.237C15.104 5.079 13.6833 4.5 12 4.5C10.3167 4.5 8.89567 5.079 7.737 6.237C6.579 7.39567 6 8.88333 6 10.7C6 11.8833 6.49167 13.2373 7.475 14.762C8.45833 16.2873 9.96667 17.9833 12 19.85ZM12 22.125C11.8667 22.125 11.7333 22.1 11.6 22.05C11.4667 22 11.35 21.9333 11.25 21.85C8.81667 19.7 7 17.7043 5.8 15.863C4.6 14.021 4 12.3 4 10.7C4 8.2 4.80433 6.20833 6.413 4.725C8.021 3.24167 9.88333 2.5 12 2.5C14.1167 2.5 15.979 3.24167 17.587 4.725C19.1957 6.20833 20 8.2 20 10.7C20 12.3 19.4 14.021 18.2 15.863C17 17.7043 15.1833 19.7 12.75 21.85C12.65 21.9333 12.5333 22 12.4 22.05C12.2667 22.1 12.1333 22.125 12 22.125Z" fill="#00BCD4"/>
</svg>
