<svg width="200" height="261" viewBox="0 0 200 261" fill="none" xmlns="http://www.w3.org/2000/svg">
<g clip-path="url(#clip0_3584_285184)">
<path d="M124.562 139.879C124.912 139.336 125.374 138.874 125.916 138.522C126.457 138.171 127.067 137.937 127.706 137.838C128.344 137.738 128.996 137.775 129.619 137.945C130.242 138.115 130.822 138.415 131.322 138.825C131.479 138.955 131.627 139.097 131.765 139.248L149.786 136.624L150.789 123.073C150.866 122.033 151.353 121.067 152.142 120.386C152.932 119.705 153.959 119.366 154.999 119.442C156.038 119.519 157.005 120.006 157.686 120.795C158.367 121.585 158.706 122.612 158.629 123.652C158.627 123.676 158.625 123.7 158.623 123.724L156.866 142.739L156.858 142.782C156.629 143.513 156.171 144.151 155.551 144.6C154.932 145.05 154.183 145.288 153.418 145.279L132.221 144.913C132.138 145.039 132.05 145.16 131.955 145.277C131.545 145.776 131.034 146.183 130.455 146.471C129.877 146.759 129.245 146.921 128.599 146.947C127.954 146.974 127.31 146.864 126.71 146.624C126.11 146.384 125.568 146.02 125.118 145.556C125.027 145.463 124.941 145.366 124.859 145.267C124.248 144.515 123.89 143.588 123.837 142.621C123.784 141.653 124.037 140.693 124.562 139.879Z" fill="#FFB7B7"/>
<path d="M160.895 255.421L155.755 255.421L153.31 235.596L160.896 235.596L160.895 255.421Z" fill="#FFB7B7"/>
<path d="M162.205 260.404L145.632 260.403V260.194C145.632 258.483 146.312 256.842 147.521 255.633C148.731 254.423 150.372 253.743 152.083 253.743H152.083L162.205 253.744L162.205 260.404Z" fill="#2F2E41"/>
<path d="M196.811 250.761L191.946 252.42L183.231 234.446L190.412 231.997L196.811 250.761Z" fill="#FFB7B7"/>
<path d="M199.659 255.054L183.974 260.404L183.906 260.206C183.354 258.586 183.467 256.814 184.222 255.279C184.976 253.743 186.309 252.57 187.929 252.018L187.929 252.018L197.509 248.75L199.659 255.054Z" fill="#2F2E41"/>
<path d="M155.982 113.382L154.283 112.815C154.283 112.815 150.886 114.231 150.886 116.779C150.886 119.328 150.319 129.521 150.319 129.521L157.964 130.371L155.982 113.382Z" fill="#00BCD4"/>
<path d="M186.388 169.076C185.684 168.286 185.286 167.27 185.267 166.212C185.249 165.154 185.611 164.124 186.287 163.31L181.518 123.369C181.471 122.428 181.8 121.506 182.433 120.806C183.065 120.106 183.949 119.686 184.891 119.638C185.832 119.589 186.755 119.916 187.456 120.547C188.157 121.178 188.579 122.061 188.629 123.003C188.63 123.016 188.63 123.029 188.631 123.042L192.897 163.025C193.052 163.181 193.195 163.348 193.324 163.525C193.666 163.998 193.912 164.534 194.047 165.102C194.182 165.67 194.204 166.26 194.111 166.836C194.018 167.413 193.813 167.966 193.507 168.463C193.201 168.96 192.799 169.392 192.326 169.734C192.277 169.77 192.227 169.804 192.177 169.838C191.629 170.2 191.008 170.437 190.357 170.531C189.707 170.625 189.044 170.574 188.416 170.381C187.632 170.144 186.929 169.692 186.388 169.076Z" fill="#FFB7B7"/>
<path d="M182.021 129.522L189.666 128.672C189.666 128.672 189.1 118.479 189.1 115.931C189.1 113.383 185.702 111.967 185.702 111.967L184.004 112.533L182.021 129.522Z" fill="#00BCD4"/>
<path d="M157.114 143.665C157.114 143.665 150.601 155.572 150.601 170.012C150.601 184.453 150.035 250.709 150.035 250.709C150.035 250.709 158.53 254.673 163.626 249.86L168.157 176.525L185.995 248.444C185.995 248.444 194.489 250.143 198.453 247.311L190.808 197.194C190.808 197.194 187.694 150.192 179.199 146.794C170.705 143.397 157.114 143.665 157.114 143.665Z" fill="#2F2E41"/>
<path d="M167.554 84.0756C167.554 84.0756 162.438 82.3861 159.15 89.1442C155.861 95.9023 150.745 103.336 150.745 103.336L153.668 104.012C153.668 104.012 154.399 99.2814 156.226 98.6056L155.496 104.688C155.496 104.688 177.421 111.784 187.287 104.012L186.922 101.647C186.922 101.647 188.383 101.985 188.383 104.012L189.48 102.998C189.48 102.998 188.383 100.971 185.094 98.2677C182.936 96.4934 182.194 93.1178 181.939 91.0073C181.737 89.2206 180.971 87.5447 179.752 86.2228C177.566 83.8806 173.584 81.3911 167.554 84.0756Z" fill="#2F2E41"/>
<path d="M169.441 107.689C174.601 107.689 178.784 103.505 178.784 98.3448C178.784 93.1844 174.601 89.001 169.441 89.001C164.28 89.001 160.097 93.1844 160.097 98.3448C160.097 103.505 164.28 107.689 169.441 107.689Z" fill="#FFB7B7"/>
<path d="M159.343 98.4035C162.651 96.0096 165.328 93.2523 167.1 89.9724C167.1 89.9724 173.17 96.7173 176.88 97.0545C180.589 97.3917 177.217 88.9607 177.217 88.9607L170.472 87.2744L164.065 87.9489L159.006 91.3213L159.343 98.4035Z" fill="#2F2E41"/>
<path d="M177.783 110.268C177.783 110.268 178.053 110.123 161.928 110.71L155.179 112.569L154.282 112.816C154.282 112.816 155.132 129.805 157.397 132.919C159.662 136.034 159.096 137.733 158.529 138.016C157.963 138.299 156.547 137.733 157.397 139.149C158.246 140.564 159.379 139.715 158.246 140.564C157.114 141.414 156.547 144.528 156.547 144.528L181.464 147.926C181.464 147.926 182.314 136.883 184.579 131.221C186.844 125.558 187.41 123.292 187.41 123.292L185.711 111.967L177.783 110.268Z" fill="#00BCD4"/>
<path d="M130.411 61.9708H128.978V22.7183C128.978 16.693 126.585 10.9146 122.324 6.65405C118.064 2.39354 112.285 9.71248e-06 106.26 0L23.0982 0C17.073 -1.6511e-05 11.2945 2.39349 7.03395 6.65398C2.77344 10.9145 0.379901 16.6929 0.379883 22.7182V238.06C0.379877 244.086 2.7734 249.864 7.03389 254.125C11.2944 258.385 17.0729 260.779 23.0981 260.779H106.26C109.243 260.779 112.197 260.191 114.954 259.049C117.71 257.908 120.215 256.234 122.324 254.125C124.434 252.015 126.107 249.511 127.249 246.754C128.391 243.998 128.978 241.044 128.978 238.061V89.9113H130.411L130.411 61.9708Z" fill="#3F3D56"/>
<path d="M124.144 22.8785V237.904C124.146 240.13 123.71 242.335 122.86 244.392C122.01 246.449 120.763 248.319 119.19 249.895C117.617 251.47 115.75 252.72 113.694 253.574C111.638 254.428 109.434 254.868 107.208 254.87H23.6167C19.1202 254.873 14.8065 253.09 11.6247 249.913C8.44287 246.736 6.65357 242.424 6.65039 237.928V22.8785C6.64882 20.652 7.08581 18.447 7.9364 16.3894C8.78698 14.3318 10.0345 12.4619 11.6078 10.8864C13.181 9.31092 15.0492 8.06075 17.1056 7.20727C19.162 6.35378 21.3663 5.91369 23.5928 5.91212H33.7533C33.2541 7.13598 33.0636 8.46384 33.1985 9.7787C33.3334 11.0936 33.7897 12.3551 34.527 13.452C35.2644 14.549 36.2602 15.4478 37.4268 16.0692C38.5934 16.6907 39.8949 17.0156 41.2166 17.0155H88.8601C90.1819 17.0156 91.4834 16.6907 92.6499 16.0692C93.8165 15.4478 94.8123 14.549 95.5497 13.452C96.2871 12.3551 96.7433 11.0936 96.8782 9.7787C97.0131 8.46384 96.8226 7.13598 96.3234 5.91212H107.178C111.673 5.90808 115.987 7.69013 119.168 10.8662C122.35 14.0423 124.14 18.3523 124.144 22.848L124.144 22.8785Z" fill="white"/>
<path d="M124.144 54.6909V47.3667H113.059V6.95951C111.176 6.26419 109.185 5.90953 107.178 5.91212H105.735V47.3667H67.2831V17.0155H59.959V47.3667H27.7328V5.91216H23.6168C22.5401 5.91048 21.4658 6.01227 20.4087 6.21611V47.3667H6.65039V54.6909H20.4087V71.6318L6.65057 79.5747V88.0341L20.4087 80.0912V130.496H6.65039V137.82H20.4087V210.695H6.65039V218.019H20.4087V254.566C21.4659 254.77 22.5401 254.872 23.6168 254.87H27.7328V218.019H59.959V254.87H67.2831V218.019H105.735V254.87H107.178C109.185 254.873 111.176 254.518 113.059 253.823V218.019H124.144V210.695H113.059V178.835H124.045V171.511H113.059V137.82H124.144V130.496H113.059V85.8184H124.144V78.4943H113.059V54.6909L124.144 54.6909ZM49.7531 54.6909L27.733 67.4057L27.7328 54.6909H49.7531ZM27.7328 75.8615L59.959 57.2545V130.496H27.7328V75.8615ZM27.7328 210.695V137.82H59.959V210.695H27.7328ZM105.735 210.695H67.2831V178.835H105.735V210.695ZM105.735 171.511H67.2831V137.82H105.735V171.511ZM105.735 130.496H67.2831V85.8184H105.735V130.496ZM105.735 78.4943H67.2831V54.6909H105.735V78.4943Z" fill="#E5E5E5"/>
<path d="M130.27 78.6294C130.27 101.888 88.1567 153.702 88.1567 153.702C88.1567 153.702 46.043 101.888 46.043 78.6294C46.043 67.4601 50.4799 56.7483 58.3778 48.8505C66.2757 40.9526 76.9875 36.5156 88.1567 36.5156C99.326 36.5156 110.038 40.9526 117.936 48.8505C125.833 56.7483 130.27 67.4601 130.27 78.6294Z" fill="#00BCD4"/>
<path d="M113.059 76.7985C113.059 81.7237 111.598 86.5382 108.862 90.6334C106.126 94.7285 102.237 97.9202 97.6865 99.805C93.1363 101.69 88.1293 102.183 83.2988 101.222C78.4683 100.261 74.0311 97.8895 70.5485 94.4069C67.0659 90.9243 64.6942 86.4872 63.7334 81.6567C62.7725 76.8261 63.2657 71.8192 65.1504 67.2689C67.0352 62.7187 70.227 58.8295 74.3221 56.0932C78.4172 53.357 83.2318 51.8965 88.1569 51.8965C91.4256 51.895 94.6626 52.5373 97.683 53.7868C100.703 55.0363 103.448 56.8684 105.761 59.1787C108.073 61.4889 109.908 64.232 111.16 67.2513C112.412 70.2706 113.057 73.507 113.059 76.7757V76.7985Z" fill="white"/>
<path d="M88.0702 86.6277C93.1939 86.6277 97.3474 82.4742 97.3474 77.3505C97.3474 72.2268 93.1939 68.0732 88.0702 68.0732C82.9465 68.0732 78.793 72.2268 78.793 77.3505C78.793 82.4742 82.9465 86.6277 88.0702 86.6277Z" fill="#00BCD4"/>
<path d="M101.534 98.5391C97.5348 101.082 92.8935 102.433 88.1542 102.432C83.4149 102.431 78.7739 101.08 74.7754 98.5354C75.607 95.6285 77.3627 93.0716 79.777 91.2514C82.1912 89.4312 85.1326 88.4469 88.1561 88.4473C91.1796 88.4477 94.1207 89.4328 96.5345 91.2537C98.9482 93.0745 100.703 95.632 101.534 98.5391Z" fill="#00BCD4"/>
<path d="M88.1561 184.096C94.4259 184.096 99.5085 179.014 99.5085 172.744C99.5085 166.474 94.4259 161.392 88.1561 161.392C81.8864 161.392 76.8037 166.474 76.8037 172.744C76.8037 179.014 81.8864 184.096 88.1561 184.096Z" fill="#00BCD4"/>
</g>
<defs>
<clipPath id="clip0_3584_285184">
<rect width="200" height="261" fill="white"/>
</clipPath>
</defs>
</svg>
