<svg width="22" height="22" viewBox="0 0 22 22" fill="none" xmlns="http://www.w3.org/2000/svg">
<path d="M11.7222 2.68945C11.7222 2.29932 11.3901 1.96729 10.9917 1.96729C10.6016 1.96729 10.2695 2.29932 10.2695 2.68945V5.24609C10.2695 5.64453 10.6016 5.97656 10.9917 5.97656C11.3901 5.97656 11.7222 5.64453 11.7222 5.24609V2.68945ZM6.36816 7.37939C6.64209 7.65332 7.10693 7.65332 7.38916 7.37939C7.66309 7.09717 7.66309 6.63232 7.38916 6.3584L5.58789 4.54883C5.31396 4.2749 4.84912 4.2666 4.56689 4.54053C4.29297 4.81445 4.29297 5.2793 4.56689 5.56152L6.36816 7.37939ZM14.5112 6.44141C14.229 6.71533 14.229 7.18018 14.5112 7.4624C14.7852 7.73633 15.2583 7.73633 15.5405 7.4624L17.3418 5.65283C17.624 5.37061 17.624 4.90576 17.3418 4.62354C17.0679 4.34961 16.603 4.34961 16.3291 4.62354L14.5112 6.44141ZM19.2759 11.6958C19.6743 11.6958 20.0063 11.3638 20.0063 10.9736C20.0063 10.5835 19.6743 10.2515 19.2759 10.2515H16.7192C16.3291 10.2515 15.9971 10.5835 15.9971 10.9736C15.9971 11.3638 16.3291 11.6958 16.7192 11.6958H19.2759ZM2.70752 10.2515C2.31738 10.2515 1.98535 10.5835 1.98535 10.9736C1.98535 11.3638 2.31738 11.6958 2.70752 11.6958H5.28076C5.6709 11.6958 6.00293 11.3638 6.00293 10.9736C6.00293 10.5835 5.6709 10.2515 5.28076 10.2515H2.70752ZM15.5405 14.4849C15.2583 14.2109 14.7852 14.2109 14.5112 14.4849C14.229 14.7671 14.229 15.2319 14.5112 15.5059L16.3291 17.3237C16.603 17.5977 17.0679 17.5894 17.3418 17.3237C17.624 17.0498 17.624 16.5767 17.3418 16.2944L15.5405 14.4849ZM4.6416 16.2944C4.36768 16.5684 4.36768 17.0415 4.6333 17.3154C4.90723 17.5894 5.38037 17.5977 5.6626 17.3237L7.47217 15.5142C7.74609 15.2402 7.74609 14.7754 7.47217 14.5015C7.20654 14.2192 6.7251 14.2192 6.45117 14.5015L4.6416 16.2944ZM11.7222 16.7012C11.7222 16.3027 11.3901 15.9707 10.9917 15.9707C10.6016 15.9707 10.2695 16.3027 10.2695 16.7012V19.2578C10.2695 19.6479 10.6016 19.98 10.9917 19.98C11.3901 19.98 11.7222 19.6479 11.7222 19.2578V16.7012Z" fill="white"/>
</svg>
