<svg width="289" height="297" viewBox="0 0 289 297" fill="none" xmlns="http://www.w3.org/2000/svg">
<g clip-path="url(#clip0_916_328770)">
<path d="M144.411 297.001C206.495 297.001 256.823 246.672 256.823 184.589C256.823 122.506 206.495 72.1777 144.411 72.1777C82.3283 72.1777 32 122.506 32 184.589C32 246.672 82.3283 297.001 144.411 297.001Z" fill="#00BCD4"/>
<path opacity="0.86" d="M144.411 297.001C206.495 297.001 256.823 246.672 256.823 184.589C256.823 122.506 206.495 72.1777 144.411 72.1777C82.3283 72.1777 32 122.506 32 184.589C32 246.672 82.3283 297.001 144.411 297.001Z" fill="white"/>
<path opacity="0.1" d="M85.2338 186.318L108.666 219.67L69.4874 226.188L56.3652 208.481L85.2338 186.318Z" fill="#00BCD4"/>
<path opacity="0.1" d="M236.135 135.031L220.389 121.92L202.893 146.679L208.366 153.011L236.135 135.031Z" fill="#00BCD4"/>
<path opacity="0.1" d="M75.1738 146.679L89.6537 135.869L101.866 155.714L87.7747 163.116L75.1738 146.679Z" fill="#00BCD4"/>
<path opacity="0.1" d="M160.63 266.558L177.293 252.998L187.584 266.558L169.027 279.242L160.63 266.558Z" fill="#00BCD4"/>
<path opacity="0.1" d="M93.916 168.581L109.038 157.532L121.099 173.392L114.538 180.093L124.31 192.699L133.346 186.318L143.875 199.636L124.31 214.07L93.916 168.581Z" fill="#00BCD4"/>
<path d="M256.658 190.729L200.343 228.857L226.283 261.616C225.512 262.44 224.727 263.249 223.928 264.046L197.604 230.802L151.865 264.899L172.124 293.559C170.957 293.857 169.784 294.134 168.602 294.39L148.184 265.499L119.535 225.549L69.3795 235.654L73.3924 271.725C72.1256 270.693 70.8836 269.633 69.6664 268.546L65.9367 235.016L32.6264 196.482C32.4252 194.612 32.2737 192.728 32.1719 190.83L68.1723 232.479L117.389 222.56L48.3117 126.24C48.9377 125.208 49.581 124.187 50.2418 123.177L120.994 221.834L121.382 221.756L172.994 185.438L136.435 137.977L141.715 72.2132C142.613 72.1909 143.512 72.1797 144.412 72.1797C144.636 72.1797 144.859 72.1797 145.083 72.1834L139.881 136.956L175.74 183.505L245.152 134.664C245.658 135.678 246.148 136.701 246.62 137.735L123.04 224.688L149.919 262.168L198.212 226.168L198.256 226.224L256.803 186.583C256.78 187.972 256.732 189.351 256.658 190.729Z" fill="white"/>
<path d="M144.409 4.77734C109.026 4.77734 80.457 33.3765 80.457 68.6511C80.457 79.743 84.6674 92.2366 88.2596 99.2716C100.052 122.379 143.699 186.991 143.699 186.991C143.772 187.114 143.877 187.217 144.002 187.288C144.127 187.358 144.268 187.396 144.412 187.396C144.556 187.396 144.697 187.358 144.822 187.288C144.947 187.217 145.052 187.114 145.126 186.991C145.126 186.991 188.772 122.379 200.564 99.2716C204.155 92.2351 208.367 79.743 208.367 68.6511C208.367 33.375 179.797 4.77734 144.415 4.77734H144.409Z" fill="#00BCD4"/>
<path opacity="0.12" d="M144.409 4.77734C109.026 4.77734 80.457 33.3765 80.457 68.6511C80.457 79.743 84.6674 92.2366 88.2596 99.2716C100.052 122.379 143.699 186.991 143.699 186.991C143.772 187.114 143.877 187.217 144.002 187.288C144.127 187.358 144.268 187.396 144.412 187.396C144.556 187.396 144.697 187.358 144.822 187.288C144.947 187.217 145.052 187.114 145.126 186.991C145.126 186.991 188.772 122.379 200.564 99.2716C204.155 92.2351 208.367 79.743 208.367 68.6511C208.367 33.375 179.797 4.77734 144.415 4.77734H144.409Z" fill="white"/>
<path d="M143.036 14.7952C143.495 14.7836 143.949 14.7952 144.411 14.7952C151.502 14.7952 158.522 16.2047 165.063 18.9415C171.604 21.6784 177.536 25.6881 182.514 30.7377C187.493 35.7872 191.417 41.7758 194.061 48.3554C196.704 54.9351 198.013 61.9745 197.912 69.0645C197.51 97.882 173.99 121.403 145.171 121.803C131.056 121.968 117.446 116.549 107.307 106.726C97.1686 96.9031 91.3217 83.4721 91.04 69.3581C90.7583 55.2441 96.0647 41.5904 105.803 31.3708C115.542 21.1512 128.924 15.1935 143.036 14.7952Z" fill="white"/>
<path d="M160.631 0.847656C160.631 0.847656 176.11 1.03693 170.773 22.3697L169.32 22.4405L166.37 22.5843L160.631 0.847656Z" fill="#0C0C0C"/>
<path d="M143.348 44.7516C143.42 44.7449 143.705 58.0507 159.172 57.4918C169.879 57.1062 174.125 45.9268 174.37 45.9361C173.228 45.6469 171.304 45.2158 170.803 44.9233C169.157 43.9546 167.114 42.934 166.698 39.6485C166.459 37.7546 167.362 28.1486 167.273 26.2383L150.743 29.2604C150.816 33.2901 152.057 42.674 146.375 44.1055C145.43 44.3421 144.416 44.5541 143.348 44.7516Z" fill="#E98862"/>
<path opacity="0.52" d="M150.078 40.4341C150.367 39.6168 150.566 38.7703 150.67 37.9097C150.927 35.9468 150.968 33.9617 150.792 31.9899C154.141 31.6696 157.332 30.4166 160.004 28.373C160.265 29.5087 161.748 34.4837 161.243 35.5344C160.287 37.5207 156.045 40.6658 150.078 40.4341Z" fill="#0C0C0C"/>
<path d="M153.83 38.0835C160.31 37.6211 168.127 33.6745 168.399 24.8954L168.644 16.9736C168.915 8.19441 164.525 0.934704 156.258 0.678729C147.992 0.423127 141.593 7.34824 141.322 16.1285L141.213 19.6354C141.197 20.8401 141.263 22.0445 141.41 23.2403C141.777 26.4037 142.347 31.2139 144.429 34.4984C146.396 37.5991 149.69 38.3779 153.83 38.0835Z" fill="#E98862"/>
<path d="M167.803 27.5536C170.315 27.6315 172.434 25.0069 172.512 22.4949C172.59 19.9828 170.596 18.5345 168.084 18.457L166.737 20.1002L165.643 27.487L167.803 27.5536Z" fill="#E98862"/>
<path d="M141.746 25.8914C142.2 26.4296 142.781 26.8457 143.437 27.1018C144.093 27.358 144.802 27.446 145.5 27.3579C146.994 27.1716 147.985 27.7831 149.232 27.6597C150.279 27.5565 150.462 27.0733 152.247 26.9675C159.145 26.5576 164.319 26.1243 164.656 17.4688L169.045 13.5703C169.045 13.5703 171.007 37.5548 158.034 40.7432C150.063 42.7023 142.586 41.9854 141.625 34.4984C140.844 28.415 141.746 25.8914 141.746 25.8914Z" fill="#0C0C0C"/>
<path d="M145.015 20.8831C145.577 20.8831 146.033 20.427 146.033 19.8644C146.033 19.3018 145.577 18.8457 145.015 18.8457C144.452 18.8457 143.996 19.3018 143.996 19.8644C143.996 20.427 144.452 20.8831 145.015 20.8831Z" fill="#0C0C0C"/>
<path d="M154.114 20.6926C154.677 20.6926 155.133 20.2366 155.133 19.674C155.133 19.1114 154.677 18.6553 154.114 18.6553C153.552 18.6553 153.096 19.1114 153.096 19.674C153.096 20.2366 153.552 20.6926 154.114 20.6926Z" fill="#0C0C0C"/>
<path d="M165.375 23.4704C165.375 23.4704 164.753 11.0293 160.999 10.1932C158.499 9.63655 152.349 13.0853 146.732 11.9072C144.273 11.3922 141.922 11.9597 141.665 13.1203C141.562 13.5798 139.615 9.5039 143.57 4.54425C146.718 0.594703 156.953 -0.515267 161.506 0.881231C174.113 4.74843 168.591 19.0134 168.591 19.0134L167.947 23.2871L165.375 23.4704Z" fill="#0C0C0C"/>
<path d="M171.106 13.4389C174.817 13.4389 177.826 10.4305 177.826 6.71944C177.826 3.0084 174.817 0 171.106 0C167.395 0 164.387 3.0084 164.387 6.71944C164.387 10.4305 167.395 13.4389 171.106 13.4389Z" fill="#0C0C0C"/>
<path d="M149.356 27.2598H149.34C148.531 27.2371 147.175 27.1085 147.192 26.5027C147.206 26.0008 148.733 20.6231 148.905 20.0116C148.912 19.9843 148.923 19.9585 148.94 19.9358C148.956 19.9131 148.977 19.894 149.001 19.8797C149.025 19.8653 149.052 19.856 149.08 19.8524C149.108 19.8487 149.136 19.8507 149.163 19.8583C149.19 19.8659 149.215 19.8789 149.237 19.8966C149.259 19.9142 149.276 19.9361 149.29 19.9609C149.303 19.9857 149.31 20.0129 149.313 20.0408C149.315 20.0688 149.311 20.0969 149.302 20.1234C148.625 22.5047 147.614 26.1733 147.604 26.5142C147.679 26.6595 148.514 26.8238 149.352 26.8477C149.406 26.8471 149.459 26.8681 149.498 26.9063C149.537 26.9445 149.559 26.9967 149.56 27.0513C149.561 27.106 149.54 27.1586 149.501 27.1977C149.463 27.2368 149.411 27.2591 149.356 27.2598Z" fill="#0C0C0C"/>
<path d="M146.89 16.4032C146.053 16.1546 145.165 16.1362 144.319 16.3499C143.903 16.4524 143.504 16.6166 143.137 16.8373C142.773 17.0538 142.438 17.3153 142.14 17.6156C142.114 17.6386 142.093 17.6664 142.079 17.6974C142.064 17.7284 142.055 17.762 142.053 17.7963C142.051 17.8307 142.056 17.8651 142.068 17.8975C142.079 17.9299 142.097 17.9598 142.12 17.9854C142.143 18.0111 142.17 18.0319 142.201 18.0468C142.232 18.0617 142.266 18.0703 142.3 18.0722C142.335 18.0741 142.369 18.0692 142.401 18.0578C142.434 18.0464 142.464 18.0287 142.489 18.0058L142.505 17.9923C142.783 17.7417 143.092 17.527 143.423 17.3533C143.75 17.1803 144.1 17.0577 144.463 16.9897C145.18 16.8494 145.921 16.9008 146.611 17.1387L146.638 17.1484C146.736 17.1844 146.844 17.18 146.939 17.1361C147.034 17.0923 147.107 17.0126 147.143 16.9146C147.179 16.8166 147.174 16.7084 147.131 16.6136C147.087 16.5189 147.007 16.4455 146.909 16.4095L146.89 16.4032Z" fill="#0C0C0C"/>
<path d="M152.892 17.1416C153.556 16.8371 154.289 16.7136 155.016 16.7836C155.384 16.8161 155.745 16.904 156.087 17.0444C156.433 17.1852 156.761 17.3689 157.062 17.5913L157.079 17.6025C157.106 17.6229 157.138 17.6376 157.171 17.6459C157.205 17.6541 157.239 17.6557 157.273 17.6505C157.307 17.6454 157.34 17.6336 157.369 17.6158C157.399 17.5981 157.424 17.5747 157.445 17.547C157.465 17.5193 157.48 17.4879 157.488 17.4546C157.496 17.4212 157.498 17.3865 157.493 17.3526C157.488 17.3186 157.476 17.286 157.458 17.2565C157.44 17.2271 157.417 17.2015 157.389 17.1811C157.063 16.911 156.704 16.6832 156.321 16.503C155.934 16.319 155.522 16.1942 155.098 16.1326C154.235 16.0023 153.353 16.1068 152.545 16.4352C152.498 16.455 152.454 16.484 152.418 16.5206C152.381 16.5572 152.352 16.6006 152.333 16.6483C152.313 16.6961 152.303 16.7473 152.303 16.799C152.303 16.8506 152.313 16.9018 152.333 16.9495C152.353 16.9973 152.382 17.0406 152.418 17.0772C152.455 17.1137 152.498 17.1426 152.546 17.1624C152.594 17.1821 152.645 17.1922 152.697 17.1922C152.748 17.1922 152.799 17.1819 152.847 17.1621L152.866 17.1539L152.892 17.1416Z" fill="#0C0C0C"/>
<path d="M108.223 45.1125L108.665 34.1715C108.675 33.9311 108.634 33.6914 108.546 33.4675C108.458 33.2436 108.324 33.0406 108.153 32.8712C107.982 32.7018 107.778 32.5699 107.554 32.4838C107.329 32.3977 107.089 32.3593 106.849 32.3711C106.405 32.4066 105.991 32.6054 105.686 32.929C105.382 33.2526 105.208 33.6779 105.199 34.1223L105.104 36.4697L102.016 28.9533C101.687 28.1119 100.745 27.2896 99.8258 27.7207C99.4614 27.8638 99.1562 28.1261 98.96 28.4648C98.7638 28.8035 98.6881 29.1987 98.7452 29.5859C98.7365 29.587 98.7279 29.5889 98.7195 29.5915C98.7132 29.5945 98.7087 29.5994 98.7028 29.6027L98.196 28.3053C98.1021 28.065 97.9556 27.8486 97.7674 27.672C97.5793 27.4954 97.354 27.363 97.1082 27.2844C96.8623 27.2059 96.6021 27.1832 96.3463 27.218C96.0906 27.2528 95.8459 27.3442 95.6299 27.4856C95.2946 27.7152 95.0483 28.0529 94.9321 28.4424C94.816 28.8318 94.8372 29.2493 94.9921 29.6251L95.2063 30.1802C95.1932 30.1938 95.1826 30.2095 95.175 30.2268C94.9427 29.8876 94.5974 29.6421 94.2007 29.5342C93.8041 29.4263 93.3819 29.463 93.0098 29.6377C92.6083 29.841 92.2981 30.1881 92.1412 30.61C91.9842 31.0318 91.9921 31.4973 92.1633 31.9136L92.6995 33.2847C92.6782 33.2707 92.6539 33.262 92.6285 33.2592C92.6032 33.2564 92.5776 33.2597 92.5538 33.2687C92.5261 33.2811 92.5026 33.3011 92.486 33.3265C92.1952 33.0819 91.8321 32.9396 91.4525 32.9214C91.073 32.9033 90.698 33.0104 90.3853 33.2262C90.0612 33.4594 89.8254 33.7953 89.7161 34.1793C89.6068 34.5633 89.6304 34.9729 89.7831 35.3418L94.305 46.9133C94.9377 48.5319 96.0394 49.9248 97.4688 50.9133C98.8982 51.9019 100.59 52.441 102.328 52.4616C103.827 52.4793 105.273 51.9121 106.36 50.8805C107.447 49.8489 108.089 48.4341 108.15 46.9367L108.223 45.1125Z" fill="#E98862"/>
<g opacity="0.2">
<path d="M101.765 37.0387C101.726 37.0536 101.682 37.0527 101.644 37.0361C101.606 37.0195 101.575 36.9887 101.56 36.9501L98.6318 29.8003C98.6235 29.7808 98.6192 29.7599 98.6191 29.7387C98.619 29.7176 98.6231 29.6966 98.6312 29.6771C98.6393 29.6575 98.6511 29.6397 98.6661 29.6248C98.6811 29.6099 98.6989 29.5981 98.7184 29.59C98.738 29.582 98.759 29.578 98.7801 29.5781C98.8013 29.5783 98.8222 29.5826 98.8416 29.5909C98.8611 29.5992 98.8787 29.6113 98.8935 29.6264C98.9082 29.6416 98.9198 29.6595 98.9276 29.6792L101.856 36.829C101.863 36.8484 101.868 36.8692 101.867 36.8903C101.867 36.9113 101.863 36.9321 101.855 36.9515C101.847 36.9708 101.835 36.9884 101.82 37.0032C101.805 37.018 101.787 37.0297 101.768 37.0376L101.765 37.0387Z" fill="#0C0C0C"/>
</g>
<g opacity="0.2">
<path d="M98.6467 38.4165C98.6077 38.4313 98.5645 38.4304 98.5262 38.4138C98.4879 38.3973 98.4576 38.3664 98.4418 38.3278L95.1741 30.3486C95.1661 30.3292 95.162 30.3084 95.1621 30.2874C95.1622 30.2665 95.1664 30.2457 95.1745 30.2264C95.1826 30.207 95.1944 30.1894 95.2093 30.1747C95.2242 30.1599 95.2419 30.1482 95.2613 30.1403C95.3006 30.1256 95.3441 30.1265 95.3828 30.1427C95.4216 30.1589 95.4527 30.1892 95.4699 30.2275L98.7376 38.2067C98.7536 38.246 98.7534 38.29 98.737 38.3291C98.7206 38.3682 98.6893 38.3992 98.6501 38.4153L98.6467 38.4165Z" fill="#0C0C0C"/>
</g>
<g opacity="0.2">
<path d="M95.2781 39.9288C95.2392 39.9437 95.1959 39.9428 95.1576 39.9262C95.1193 39.9096 95.089 39.8788 95.0732 39.8402L92.465 33.4754C92.4571 33.456 92.453 33.4352 92.4531 33.4141C92.4532 33.3931 92.4575 33.3723 92.4656 33.353C92.4737 33.3336 92.4856 33.316 92.5005 33.3012C92.5154 33.2864 92.5331 33.2747 92.5526 33.2668C92.572 33.2588 92.5929 33.2548 92.6139 33.2549C92.6349 33.255 92.6557 33.2592 92.6751 33.2673C92.6944 33.2755 92.712 33.2873 92.7268 33.3023C92.7416 33.3172 92.7533 33.3349 92.7612 33.3543L95.3694 39.7191C95.3855 39.7583 95.3853 39.8023 95.3689 39.8414C95.3526 39.8805 95.3214 39.9115 95.2822 39.9277L95.2781 39.9288Z" fill="#0C0C0C"/>
</g>
<path d="M147.562 29.4936C150.004 29.6558 152.431 28.9994 154.458 27.628C154.529 27.5814 154.611 27.5557 154.695 27.5538C154.78 27.552 154.863 27.5741 154.936 27.6176C155.008 27.6611 155.067 27.7242 155.105 27.7997C155.143 27.8751 155.158 27.9598 155.15 28.0439C154.987 29.4869 154.274 32.1398 151.248 32.4778C149.293 32.6958 147.877 31.1949 147.164 30.1971C147.115 30.1279 147.087 30.0463 147.083 29.9617C147.078 29.8771 147.098 29.7931 147.14 29.7194C147.182 29.6458 147.243 29.5854 147.318 29.5454C147.393 29.5055 147.477 29.4875 147.562 29.4936Z" fill="white"/>
<path d="M195.087 59.5934C193.621 55.424 192.436 53.3449 190.93 51.7007C188.868 49.4502 185.767 47.2343 180.016 46.2287C176.503 45.6176 171.207 45.0677 171.207 45.0677C171.207 45.077 171.206 45.0864 171.205 45.0956C171.144 45.6482 170.05 54.1497 159.657 54.2351C145.337 54.3547 146.366 44.5177 146.335 44.1157C146.338 44.1078 146.338 44.1026 146.335 44.1026C141.892 43.9297 130.816 43.8303 126.355 48.1938C125.888 48.6477 125.457 49.1381 125.067 49.6603L125.006 49.6231L114.782 65.3422L112.228 44.4693L108.224 45.1109L95.2275 47.1933L94.4764 47.3129L89.8457 48.0581L91.4598 60.5685L95.1586 89.2493C98.7679 97.7136 104.495 105.107 111.788 110.718C114.806 106.459 119.799 99.1116 124.983 91.4107C125.064 91.2885 125.146 91.1663 125.23 91.0441V91.0467C125.23 91.1305 125.232 91.2169 125.235 91.3038C125.247 91.8537 125.263 92.4775 125.275 93.1645C125.398 99.4756 125.522 111.044 125.624 118.419C134.852 121.875 144.857 122.71 154.53 120.832C164.204 118.954 173.169 114.436 180.433 107.777C180.484 107.734 180.533 107.688 180.582 107.64C180.679 107.554 180.776 107.464 180.87 107.375C185.84 102.739 189.889 97.2062 192.805 91.0668C196.026 84.2799 197.766 76.8852 197.909 69.3741V69.3715L195.087 59.5934Z" fill="#0CBC8B"/>
<path d="M180.868 107.374C180.774 107.463 180.677 107.552 180.58 107.639C180.532 107.687 180.484 107.733 180.431 107.776L177.669 93.7213L177.666 93.706L173.717 73.617L174.216 73.4873L180.868 107.374Z" fill="#0C0C0C"/>
<path d="M125.299 93.1657C125.234 93.1631 125.173 93.1364 125.128 93.0908C125.082 93.0453 125.055 92.9843 125.052 92.9198L124.541 81.6882C124.54 81.6544 124.545 81.6207 124.556 81.5889C124.568 81.5571 124.586 81.5278 124.608 81.5029C124.631 81.4779 124.659 81.4576 124.689 81.4433C124.72 81.4289 124.753 81.4208 124.787 81.4192C124.821 81.4177 124.854 81.4228 124.886 81.4343C124.918 81.4458 124.947 81.4635 124.972 81.4863C124.997 81.5091 125.017 81.5366 125.032 81.5672C125.046 81.5978 125.054 81.631 125.056 81.6648L125.567 92.8967C125.568 92.9305 125.563 92.9642 125.552 92.996C125.54 93.0278 125.522 93.057 125.5 93.082C125.477 93.1069 125.449 93.1271 125.419 93.1415C125.388 93.1558 125.355 93.1639 125.321 93.1654C125.312 93.1658 125.305 93.1661 125.299 93.1657Z" fill="#0C0C0C"/>
</g>
<defs>
<clipPath id="clip0_916_328770">
<rect width="224.822" height="297" fill="white" transform="translate(32)"/>
</clipPath>
</defs>
</svg>
