<svg width="24" height="24" viewBox="0 0 24 24" fill="none" xmlns="http://www.w3.org/2000/svg">
<path d="M8.87891 6.02197C8.87891 7.48291 9.8667 8.70312 11.2197 9.04346V16.7466C11.2197 19.1953 11.6597 20.5317 11.9917 20.5317C12.332 20.5317 12.7637 19.2036 12.7637 16.7466V9.04346C14.1167 8.71143 15.1128 7.48291 15.1128 6.02197C15.1128 4.30371 13.7266 2.89258 11.9917 2.89258C10.2651 2.89258 8.87891 4.30371 8.87891 6.02197ZM11.1035 6.19629C10.5308 6.19629 10.0327 5.69824 10.0327 5.11719C10.0327 4.54443 10.5308 4.05469 11.1035 4.05469C11.6846 4.05469 12.166 4.54443 12.166 5.11719C12.166 5.69824 11.6846 6.19629 11.1035 6.19629Z" fill="#27272A"/>
</svg>
