<svg width="279" height="225" viewBox="0 0 279 225" fill="none" xmlns="http://www.w3.org/2000/svg">
<g clip-path="url(#clip0_3811_286969)">
<g clip-path="url(#clip1_3811_286969)">
<mask id="mask0_3811_286969" style="mask-type:luminance" maskUnits="userSpaceOnUse" x="-22" y="-22" width="358" height="229">
<path d="M335.085 -22H-22V207H335.085V-22Z" fill="white"/>
</mask>
<g mask="url(#mask0_3811_286969)">
<mask id="mask1_3811_286969" style="mask-type:luminance" maskUnits="userSpaceOnUse" x="-18" y="-89" width="358" height="358">
<path d="M-17.563 -88.2334H339.522V268.851H-17.563V-88.2334Z" fill="white"/>
</mask>
<g mask="url(#mask1_3811_286969)">
<g opacity="0.734301">
<path d="M49.0479 27.4162L57.0216 22.8704L64.2605 30.4082L56.2865 34.9536L49.0479 27.4162Z" fill="#E3E7EB"/>
</g>
<path d="M155.342 48.8409L156.825 39.7825L167.237 38.8975L165.755 47.9554L155.342 48.8409Z" fill="#E3E7EB"/>
<g opacity="0.812419">
<path d="M278.753 119.47L271.134 124.587L263.363 117.6L270.982 112.483L278.753 119.47Z" fill="#E3E7EB"/>
</g>
<path d="M251.561 84.0996L247.844 92.4913L237.545 90.7237L241.261 82.3321L251.561 84.0996Z" fill="#E3E7EB"/>
<g opacity="0.942641">
<path d="M193.635 41.197L187.486 37.6715L189.666 29.9011L195.816 33.4266L193.635 41.197Z" fill="#FFC312"/>
</g>
<g opacity="0.927298">
<path d="M143.206 41.3922L139.824 36.9377L143.8 31.9633L147.182 36.4182L143.206 41.3922Z" fill="#A6DADE"/>
</g>
<path d="M241.17 110.699L238.118 106.012L242.442 101.338L245.495 106.024L241.17 110.699Z" fill="#E7529C"/>
<path d="M194.111 55.0878L189.919 58.7914L184.664 55.1955L188.855 51.4917L194.111 55.0878Z" fill="#E7529C"/>
<g opacity="0.911066">
<path d="M110.51 49.9648L108.772 55.2805L102.419 54.8409L104.157 49.5247L110.51 49.9648Z" fill="#FFC312"/>
</g>
<path d="M78.3532 122.797L80.5725 117.663L86.8583 118.685L84.639 123.819L78.3532 122.797Z" fill="#E7529C"/>
<path d="M99.4404 116.751C95.1893 117.944 90.4673 117.549 86.5858 115.445C85.1275 114.655 83.6523 113.381 83.6711 111.722C83.68 110.929 84.0518 110.164 84.6084 109.599C84.9771 109.225 85.4395 108.939 85.9377 108.768" stroke="#FFC312" stroke-width="2.15545" stroke-miterlimit="10"/>
<path d="M195.693 75.469C196.247 74.9249 196.795 74.3745 197.337 73.8184" stroke="#FFC312" stroke-width="2.15545" stroke-miterlimit="10"/>
<path d="M162.864 86.3482C163.028 82.8405 165.359 81.8227 168.043 84.0868L175.013 89.9633C177.696 92.2275 182.664 93.3207 186.051 92.3932L194.842 89.9841C198.23 89.0566 199.918 90.9592 198.594 94.2117L195.158 102.655C193.834 105.909 194.33 110.97 196.259 113.904L201.266 121.522C203.195 124.457 201.907 126.65 198.406 126.396L189.313 125.737C185.811 125.483 181.148 127.518 178.954 130.259L173.257 137.377C171.062 140.118 168.578 139.571 167.737 136.162L165.554 127.311C164.713 123.901 161.337 120.098 158.052 118.857L149.523 115.637C146.238 114.398 145.989 111.867 148.972 110.013L156.715 105.202C159.699 103.348 162.273 98.9618 162.438 95.4537L162.864 86.3482Z" fill="#FFD46F"/>
<path d="M194.892 89.9639L186.1 92.3732C182.713 93.3006 177.745 92.2075 175.062 89.9434L168.093 84.0665C166.75 82.9339 165.497 82.6225 164.558 83.0322L183.693 126.855C185.57 126.035 187.611 125.59 189.362 125.717L198.455 126.376C201.957 126.63 203.245 124.436 201.316 121.502L196.308 113.884C194.378 110.95 193.884 105.889 195.207 102.635L198.643 94.1913C199.967 90.9389 198.28 89.0365 194.892 89.9639Z" fill="#FFC312"/>
<path d="M171.132 118.272C173.578 120.108 176.92 120.595 179.909 119.256C182.898 117.916 184.758 115.096 185.014 112.049" stroke="#C88F37" stroke-width="0.889685" stroke-miterlimit="10" stroke-linecap="round"/>
<path d="M179.517 100.505L177.775 104.011L181.498 105.168M166.953 105.841L170.685 107.022L168.934 110.505" stroke="#C88F37" stroke-width="0.889685" stroke-linecap="round" stroke-linejoin="round"/>
<path d="M119.916 86.1699C118.263 85.0847 118.438 83.6631 120.305 83.0112L125.151 81.3178C127.017 80.6663 128.971 78.572 129.492 76.6645L130.845 71.713C131.366 69.8052 132.772 69.5325 133.969 71.1067L137.076 75.1923C138.274 76.7662 140.869 77.9771 142.844 77.8831L147.972 77.6398C149.947 77.546 150.641 78.7987 149.514 80.4232L146.588 84.6414C145.461 86.2658 145.111 89.109 145.811 90.9582L147.627 95.7597C148.326 97.6093 147.35 98.656 145.457 98.0866L140.541 96.6074C138.647 96.0377 135.836 96.5837 134.293 97.8204L130.288 101.031C128.745 102.268 127.447 101.663 127.404 99.6858L127.292 94.554C127.248 92.5766 125.86 90.0716 124.207 88.9865L119.916 86.1699Z" fill="#FFD46F"/>
<path d="M130.849 71.6824L129.496 76.6341C128.975 78.5414 127.021 80.6359 125.154 81.2874L120.308 82.9808C119.375 83.3069 118.865 83.8249 118.794 84.3975L145.518 87.6849C145.659 86.5402 146.028 85.4234 146.592 84.6109L149.518 80.3927C150.644 78.7683 149.95 77.5151 147.975 77.6091L142.848 77.8526C140.873 77.9468 138.278 76.7357 137.08 75.1616L133.973 71.0761C132.776 69.502 131.37 69.7746 130.849 71.6824Z" fill="#FFC312"/>
<path d="M140.164 89.1747C140.47 88.6253 140.675 88.0072 140.75 87.3429C140.826 86.6784 140.764 86.0301 140.588 85.426" stroke="#C88F37" stroke-width="0.50097" stroke-miterlimit="10" stroke-linecap="round"/>
<path d="M131.553 82.1555L132.752 84.0048L134.38 82.5321M130.538 89.7748L132.179 88.304L133.366 90.1514" stroke="#C88F37" stroke-width="0.50097" stroke-linecap="round" stroke-linejoin="round"/>
</g>
</g>
</g>
<path d="M132.5 132.417C112.067 132.417 95.4167 149.067 95.4167 169.5C95.4167 189.933 112.067 206.584 132.5 206.584C152.933 206.584 169.583 189.933 169.583 169.5C169.583 149.067 152.933 132.417 132.5 132.417ZM150.226 160.971L129.2 181.997C128.68 182.517 127.976 182.813 127.234 182.813C126.493 182.813 125.788 182.517 125.269 181.997L114.774 171.503C113.699 170.427 113.699 168.647 114.774 167.572C115.85 166.497 117.63 166.497 118.705 167.572L127.234 176.101L146.295 157.04C147.37 155.965 149.151 155.965 150.226 157.04C151.301 158.116 151.301 159.859 150.226 160.971Z" fill="#24A148"/>
</g>
<defs>
<clipPath id="clip0_3811_286969">
<rect width="278" height="225" fill="white" transform="translate(0.5)"/>
</clipPath>
<clipPath id="clip1_3811_286969">
<rect width="357.085" height="229" fill="white" transform="translate(-22 -22)"/>
</clipPath>
</defs>
</svg>
