<svg width="29" height="43" viewBox="0 0 29 43" fill="none" xmlns="http://www.w3.org/2000/svg">
<path fill-rule="evenodd" clip-rule="evenodd" d="M26.0736 23.2365C27.9105 20.8068 29 17.7806 29 14.5C29 6.49187 22.5081 0 14.5 0C6.49187 0 0 6.49187 0 14.5C0 17.2449 0.762733 19.8117 2.08782 22H2L14.5042 41L26.0736 23.2365Z" fill="black"/>
<path d="M15 15.4429C16.3323 15.4429 17.4902 14.2476 17.4902 12.6912C17.4902 11.1534 16.3323 10.0142 15 10.0142C13.6677 10.0142 12.5098 11.1783 12.5098 12.7036C12.5098 14.2476 13.6615 15.4429 15 15.4429ZM10.8226 21.2078H19.1711C19.8373 21.2078 20.2357 20.8965 20.2357 20.3798C20.2357 18.7736 18.2249 16.5573 14.9938 16.5573C11.7689 16.5573 9.75806 18.7736 9.75806 20.3798C9.75806 20.8965 10.1565 21.2078 10.8226 21.2078Z" fill="white"/>
<path d="M18.125 40.5C18.125 40.8693 17.8574 41.3258 17.1585 41.7251C16.4773 42.1144 15.4945 42.375 14.375 42.375C13.2555 42.375 12.2727 42.1144 11.5915 41.7251C10.8926 41.3258 10.625 40.8693 10.625 40.5C10.625 40.1307 10.8926 39.6742 11.5915 39.2749C12.2727 38.8856 13.2555 38.625 14.375 38.625C15.4945 38.625 16.4773 38.8856 17.1585 39.2749C17.8574 39.6742 18.125 40.1307 18.125 40.5Z" stroke="black" stroke-width="1.25"/>
</svg>
