<svg width="20" height="20" viewBox="0 0 20 20" fill="none" xmlns="http://www.w3.org/2000/svg">
<rect y="2.85742" width="20" height="14.2857" rx="1.42857" fill="white"/>
<mask id="mask0_3756_23269" style="mask-type:luminance" maskUnits="userSpaceOnUse" x="0" y="2" width="20" height="16">
<rect y="2.85742" width="20" height="14.2857" rx="1.42857" fill="white"/>
</mask>
<g mask="url(#mask0_3756_23269)">
<rect x="9.52393" y="2.85742" width="10.4762" height="14.2857" fill="#1AB11F"/>
<path fill-rule="evenodd" clip-rule="evenodd" d="M0 17.1431H6.66667V2.85742H0V17.1431Z" fill="#262626"/>
<path fill-rule="evenodd" clip-rule="evenodd" d="M6.6665 17.1431H13.3332V2.85742H6.6665V17.1431Z" fill="#DC0D18"/>
<path opacity="0.75" d="M9.28446 10.7608L9.52345 10.3489H9.52345L9.28446 10.7608ZM9.45735 11.4117L9.04547 11.1727L9.04547 11.1727L9.45735 11.4117ZM8.80649 11.5846L9.04547 11.1727H9.04547L8.80649 11.5846ZM11.2815 11.531L11.5381 11.9321L11.2815 11.531ZM10.6238 11.3864L11.0249 11.1298L10.6238 11.3864ZM10.7683 10.7286L10.5118 10.3275V10.3275L10.7683 10.7286ZM9.04765 9.524C9.04765 8.99802 8.62126 8.57162 8.09527 8.57162V9.524H9.04765ZM9.52345 10.3489C9.23713 10.1828 9.04765 9.87513 9.04765 9.524H8.09527C8.09527 10.2279 8.47711 10.8429 9.04547 11.1727L9.52345 10.3489ZM9.86923 11.6506C10.1332 11.1957 9.97839 10.6129 9.52345 10.3489L9.04547 11.1727L9.86923 11.6506ZM8.5675 11.9964C9.02244 12.2604 9.60525 12.1056 9.86923 11.6506L9.04547 11.1727L9.04547 11.1727L8.5675 11.9964ZM7.14289 9.524C7.14289 10.5815 7.71793 11.5035 8.5675 11.9964L9.04547 11.1727C8.4772 10.8429 8.09527 10.228 8.09527 9.524H7.14289ZM8.09527 8.57162C7.56929 8.57162 7.14289 8.99802 7.14289 9.524H8.09527V8.57162ZM12.8572 9.524C12.8572 8.99802 12.4308 8.57162 11.9048 8.57162V9.524H12.8572ZM11.5381 11.9321C12.3291 11.4262 12.8572 10.5371 12.8572 9.524H11.9048C11.9048 10.1985 11.5541 10.7913 11.0249 11.1298L11.5381 11.9321ZM10.2226 11.6429C10.506 12.0861 11.0949 12.2155 11.5381 11.9321L11.0249 11.1298L10.2226 11.6429ZM10.5118 10.3275C10.0687 10.6109 9.9392 11.1998 10.2226 11.6429L11.0249 11.1298L10.5118 10.3275ZM10.9524 9.524C10.9524 9.86056 10.7786 10.1568 10.5118 10.3275L11.0249 11.1298C11.5542 10.7913 11.9048 10.1984 11.9048 9.524H10.9524ZM11.9048 8.57162C11.3788 8.57162 10.9524 8.99802 10.9524 9.524H11.9048V8.57162Z" fill="white"/>
<ellipse cx="10.0002" cy="9.04771" rx="0.952381" ry="1.42857" fill="white" fill-opacity="0.5"/>
</g>
</svg>
