<svg width="22" height="22" viewBox="0 0 22 22" fill="none" xmlns="http://www.w3.org/2000/svg">
<path d="M20.625 11C20.625 16.313 16.3178 20.625 11 20.625C5.68219 20.625 1.375 16.313 1.375 11C1.375 5.68219 5.68219 1.375 11 1.375C16.3178 1.375 20.625 5.68219 20.625 11Z" fill="#283544"/>
<path d="M15.5115 8.56445C15.4589 8.59509 14.2086 9.24171 14.2086 10.6754C14.2675 12.3104 15.7865 12.8838 15.8125 12.8838C15.7865 12.9145 15.5832 13.6649 14.9811 14.4516C14.5033 15.1293 13.9729 15.8125 13.1675 15.8125C12.4015 15.8125 12.1265 15.3609 11.2425 15.3609C10.2933 15.3609 10.0247 15.8125 9.29789 15.8125C8.49253 15.8125 7.92288 15.0927 7.419 14.4214C6.76438 13.5428 6.20797 12.164 6.18833 10.8401C6.17509 10.1386 6.31942 9.44902 6.68581 8.86329C7.20293 8.04557 8.12614 7.49048 9.13434 7.47217C9.90682 7.4479 10.5943 7.96639 11.0657 7.96639C11.5175 7.96639 12.3622 7.47217 13.3179 7.47217C13.7304 7.47257 14.8304 7.58836 15.5115 8.56445ZM11.0004 7.33211C10.8629 6.69146 11.2425 6.05082 11.5961 5.64216C12.0479 5.14794 12.7614 4.8125 13.3768 4.8125C13.4161 5.45315 13.1671 6.08146 12.7222 6.53906C12.3229 7.03327 11.6354 7.40532 11.0004 7.33211Z" fill="white"/>
</svg>
