<svg width="30" height="30" viewBox="0 0 30 30" fill="none" xmlns="http://www.w3.org/2000/svg">
<path d="M15 19.4312C14.7842 19.4312 14.5933 19.3481 14.4355 19.1904L8.01074 12.6162C7.86963 12.4668 7.78662 12.2842 7.78662 12.0767C7.78662 11.645 8.11035 11.313 8.54199 11.313C8.75781 11.313 8.94873 11.396 9.08154 11.5288L15 17.5718L20.9102 11.5288C21.0513 11.396 21.2422 11.313 21.4497 11.313C21.8813 11.313 22.2051 11.645 22.2051 12.0767C22.2051 12.2842 22.1221 12.4668 21.981 12.6079L15.5562 19.1904C15.415 19.3481 15.2075 19.4312 15 19.4312Z" fill="#3C3C43" fill-opacity="0.33"/>
</svg>
