<svg width="22" height="22" viewBox="0 0 22 22" fill="none" xmlns="http://www.w3.org/2000/svg">
<rect width="22" height="22" rx="11" fill="#FF9500"/>
<path d="M11.0117 11.4551C11.252 11.4551 11.4746 11.3438 11.7324 11.0859L16.8301 6.04102C16.6133 5.83008 16.209 5.73047 15.6289 5.73047H6.19531C5.70312 5.73047 5.35742 5.82422 5.16406 6.01758L10.291 11.0859C10.543 11.3379 10.7656 11.4551 11.0117 11.4551ZM4.67773 14.8828L8.82031 10.7871L4.66602 6.69141C4.57812 6.85547 4.53125 7.13672 4.53125 7.54102V14.0098C4.53125 14.4258 4.57812 14.7188 4.67773 14.8828ZM17.3281 14.877C17.4219 14.707 17.4688 14.4199 17.4688 14.0098V7.54102C17.4688 7.14844 17.4219 6.86719 17.3398 6.70898L13.1973 10.7871L17.3281 14.877ZM6.37109 15.8262H15.8047C16.2969 15.8262 16.6367 15.7324 16.8301 15.5449L12.6055 11.3613L12.2188 11.7539C11.8145 12.1406 11.4336 12.3164 11.0117 12.3164C10.584 12.3164 10.2031 12.1406 9.80469 11.7539L9.41211 11.3613L5.19922 15.5391C5.42188 15.7324 5.80859 15.8262 6.37109 15.8262Z" fill="white"/>
</svg>
