<svg width="22" height="22" viewBox="0 0 22 22" fill="none" xmlns="http://www.w3.org/2000/svg">
<g clip-path="url(#clip0_3656_27691)">
<path d="M21.3319 11.2401C21.3328 10.5217 21.2721 9.80464 21.1505 9.09668H11.2188V13.1565H16.9072C16.7908 13.805 16.5444 14.4231 16.1829 14.9736C15.8214 15.5242 15.3523 15.9958 14.8038 16.3599V18.9953H18.1988C20.1866 17.1608 21.3319 14.4479 21.3319 11.2401Z" fill="#4285F4"/>
<path d="M11.2182 21.5414C14.0602 21.5414 16.4532 20.6073 18.1982 18.9968L14.8033 16.3615C13.8584 17.0028 12.6414 17.3688 11.2182 17.3688C8.47121 17.3688 6.13966 15.5153 5.30592 13.0176H1.80859V15.7334C2.68514 17.4793 4.02924 18.947 5.69082 19.9726C7.3524 20.9982 9.26607 21.5413 11.2182 21.5414Z" fill="#34A853"/>
<path d="M5.30624 13.0174C4.86547 11.7086 4.86547 10.2913 5.30624 8.98245V6.2666H1.80891C1.07153 7.73529 0.6875 9.35623 0.6875 10.9999C0.6875 12.6437 1.07153 14.2646 1.80891 15.7333L5.30624 13.0174Z" fill="#FBBC04"/>
<path d="M11.2182 4.6313C12.7201 4.60674 14.1713 5.17473 15.2582 6.2125L18.264 3.20383C16.358 1.41192 13.8329 0.428131 11.2182 0.458699C9.26607 0.458788 7.3524 1.00195 5.69082 2.02754C4.02924 3.05314 2.68514 4.5208 1.80859 6.26667L5.30592 8.98252C6.13966 6.48482 8.47121 4.6313 11.2182 4.6313Z" fill="#EA4335"/>
</g>
<defs>
<clipPath id="clip0_3656_27691">
<rect width="22" height="22" rx="11" fill="white"/>
</clipPath>
</defs>
</svg>
