<svg width="22" height="22" viewBox="0 0 22 22" fill="none" xmlns="http://www.w3.org/2000/svg">
<rect width="22" height="22" rx="11" fill="#198038"/>
<path d="M8.54492 13.4238C10.2383 15.1172 12.2949 16.4238 13.9766 16.4238C14.7324 16.4238 15.3945 16.1602 15.9277 15.5742C16.2383 15.2285 16.4316 14.8242 16.4316 14.4258C16.4316 14.1328 16.3203 13.8516 16.0449 13.6523L14.2461 12.375C13.9707 12.1875 13.7422 12.0938 13.5312 12.0938C13.2676 12.0938 13.0273 12.2461 12.7578 12.5098L12.3418 12.9199C12.2773 12.9844 12.1953 13.0137 12.1191 13.0137C12.0312 13.0137 11.9434 12.9785 11.8848 12.9492C11.5215 12.7559 10.9004 12.2227 10.3203 11.6484C9.74609 11.0742 9.21289 10.4531 9.02539 10.0898C8.99609 10.0254 8.96094 9.94336 8.96094 9.85547C8.96094 9.7793 8.98438 9.70312 9.04883 9.63867L9.46484 9.21094C9.72266 8.94141 9.88086 8.70703 9.88086 8.4375C9.88086 8.22656 9.78125 7.99805 9.58789 7.72266L8.32812 5.94727C8.12305 5.66602 7.83594 5.54297 7.51953 5.54297C7.13281 5.54297 6.73438 5.71875 6.38867 6.05273C5.82031 6.59766 5.56836 7.27148 5.56836 8.01562C5.56836 9.69727 6.85156 11.7363 8.54492 13.4238Z" fill="white"/>
</svg>
